<svg data-v-0dd9719b="" version="1.0" xmlns="http://www.w3.org/2000/svg" xmlns:xlink="http://www.w3.org/1999/xlink" width="100%" height="100%" viewBox="0 0 340.000000 250.000000" preserveAspectRatio="xMidYMid meet" color-interpolation-filters="sRGB" style="margin: auto;"> <rect data-v-0dd9719b="" x="0" y="0" width="100%" height="100%" fill="#ffffff" fill-opacity="1" class="background"></rect> <rect data-v-0dd9719b="" x="0" y="0" width="100%" height="100%" fill="url(#watermark)" fill-opacity="1" class="watermarklayer"></rect> <g data-v-0dd9719b="" fill="#34487c" class="icon-text-wrapper icon-svg-group iconsvg" transform="translate(48.15785217285156,95.30996322631836)"><g class="iconsvg-imagesvg" transform="translate(0,0)"><g><rect fill="#34487c" fill-opacity="0" stroke-width="2" x="0" y="0" width="60" height="59.380072047820754" class="image-rect"></rect> <svg filter="url(#colors3859435947)" x="0" y="0" width="60" height="59.380072047820754" filtersec="colorsf7655866258" class="image-svg-svg primary" style="overflow: visible;"><svg version="1.1" id="图层_1" xmlns="http://www.w3.org/2000/svg" xmlns:xlink="http://www.w3.org/1999/xlink" x="0px" y="0px" viewBox="0 0 4.840000152587891 4.789999961853027" enable-background="new 0 0 4.84 4.79" xml:space="preserve">
<g>
	<g>
		<polygon fill="#0C0C0C" points="2.42,1.16 4.84,2.56 4.84,1.4 2.42,0 0,1.4 0,2.56 		"></polygon>
	</g>
	<g>
		<polygon fill="#0C0C0C" points="4.45,3.96 4.84,3.73 4.84,3.02 2.42,1.62 0,3.02 0,3.74 0.39,3.96 2.42,2.79 		"></polygon>
	</g>
	<g>
		<polygon fill="#0C0C0C" points="2.42,4.44 3.03,4.79 4.04,4.21 2.42,3.27 0.8,4.21 1.81,4.79 		"></polygon>
	</g>
</g>
</svg></svg> <defs><filter id="colors3859435947"><feColorMatrix type="matrix" values="0 0 0 0 0.74609375  0 0 0 0 0.25  0 0 0 0 0.38671875  0 0 0 1 0" class="icon-fecolormatrix"></feColorMatrix></filter> <filter id="colorsf7655866258"><feColorMatrix type="matrix" values="0 0 0 0 0.99609375  0 0 0 0 0.99609375  0 0 0 0 0.99609375  0 0 0 1 0" class="icon-fecolormatrix"></feColorMatrix></filter> <filter id="colorsb8418911056"><feColorMatrix type="matrix" values="0 0 0 0 0  0 0 0 0 0  0 0 0 0 0  0 0 0 1 0" class="icon-fecolormatrix"></feColorMatrix></filter></defs></g></g> <g transform="translate(67,0.9237861633300781)"><g data-gra="path-name" fill-rule="" class="tp-name iconsvg-namesvg" transform="translate(0,0)"><g transform="scale(1)"><g><path d="M15.91-15.47L28.83-15.47 28.83-26.54 15.91-26.54 15.91-15.47ZM15.91-14.24L15.91-1.76 28.83-1.76 28.83-14.24 15.91-14.24ZM34.23-27.86L36.08-27.86 38.8-31.73Q41.79-29.09 43.55-27.29L43.55-27.29Q43.33-26.54 42.32-26.54L42.32-26.54 34.23-26.54 34.23 1.58Q34.23 2.02 32.76 2.75 31.29 3.47 29.88 3.47L29.88 3.47 28.83 3.47 28.83-0.48 15.91-0.48 15.91 2.11Q15.91 2.59 14.46 3.27 13.01 3.96 11.6 3.96L11.6 3.96 10.63 3.96 10.63-26.54 1.93-26.54 1.58-27.86 10.63-27.86 10.63-37.92 17.53-37.22Q17.31-36.17 15.91-35.95L15.91-35.95 15.91-27.86 28.83-27.86 28.83-37.92 35.9-37.22Q35.77-36.17 34.23-35.95L34.23-35.95 34.23-27.86ZM56.03-15.21L56.03-15.21 56.03-9.18Q55.94 0.57 47.11 4.22L47.11 4.22 46.71 3.82Q50.98-0.35 50.98-9.23L50.98-9.23 50.98-17.01 57.57-16.39Q57.35-15.38 56.03-15.21ZM70.27-14.11L70.27-14.11 70.84-14.28Q76.38-10.94 77.3-6.72L77.3-6.72Q77.92-4.04 76.46-2.68L76.46-2.68Q75.15-1.41 73.48-2.68L73.48-2.68Q73.21-2.86 72.99-3.12L72.99-3.12Q72.95-7.78 70.27-14.11ZM79.58 4.09L78.71 4.09 78.71-16.96 85.56-16.35Q85.43-15.29 83.89-15.07L83.89-15.07 83.89 2.72Q83.89 2.94 83.25 3.25 82.62 3.56 81.56 3.82 80.51 4.09 79.58 4.09L79.58 4.09ZM69.52-20.61L78.05-20.61 78.05-25.75 69.52-25.75 69.52-20.61ZM78.05-31.99L69.52-31.99 69.52-26.98 78.05-26.98 78.05-31.99ZM83.14-26.98L83.32-26.98 85.34-29.79Q87.54-27.82 88.81-26.46L88.81-26.46Q88.68-25.75 87.71-25.75L87.71-25.75 83.14-25.75 83.14-19.03Q83.1-18.72 81.58-18.22 80.07-17.71 78.88-17.71L78.88-17.71 78.05-17.71 78.05-19.34 69.52-19.34 69.52 2.2Q69.52 2.64 68.16 3.32 66.8 4 65.43 4L65.43 4 64.47 4 64.47-12.7Q64.16-12.52 63.59-12.52L63.59-12.52Q61.13-4.39 56.56-0.7L56.56-0.7 55.94-1.14Q58.71-6.86 59.33-14.81L59.33-14.81 64.47-13.67 64.47-19.34 51.42-19.34 51.02-20.61 64.47-20.61 64.47-25.75 47.15-25.75 46.8-26.98 64.47-26.98 64.47-31.99 51.64-31.99 51.2-33.27 64.47-33.27 64.47-38.36 71.15-37.71Q71.06-36.61 69.52-36.39L69.52-36.39 69.52-33.27 77.56-33.27 79.94-35.77 84.77-32.12Q84.38-31.55 83.14-31.29L83.14-31.29 83.14-26.98ZM113.51-25.18L113.51-25.18 105.47-25.18Q105.16-23.77 104.77-22.98L104.77-22.98Q110.61-22.54 112.32-19.69L112.32-19.69Q113.38-17.93 112.37-16.61L112.37-16.61Q111.31-15.21 109.38-16L109.38-16Q109.29-16.04 109.2-16.08L109.2-16.08Q107.71-19.12 104.24-21.8L104.24-21.8Q101.43-16.35 92.15-13.54L92.15-13.54 91.71-14.19Q96.11-16.35 98.11-18.98 100.11-21.62 100.68-25.18L100.68-25.18 92.15-25.18 91.8-26.5 100.85-26.5Q101.03-28.17 101.12-31.64L101.12-31.64 99.36-31.64Q97.08-28.65 94.17-26.89L94.17-26.89 93.6-27.33Q96.15-31.68 97.08-38.28L97.08-38.28 103.4-36.43Q103.1-35.51 101.69-35.51L101.69-35.51Q101.21-34.41 100.2-32.92L100.2-32.92 106.88-32.92 109.34-36.25Q112.28-33.97 114.04-32.34L114.04-32.34Q113.86-31.64 112.76-31.64L112.76-31.64 106.22-31.64Q106.08-28.87 105.69-26.5L105.69-26.5 107.49-26.5 110.08-29.79Q112.94-27.55 114.65-25.93L114.65-25.93Q114.43-25.18 113.51-25.18ZM104.99-6.02L104.99-0.31 120.85-0.31 120.85-6.02 104.99-6.02ZM120.85-7.34L120.85-12.7 104.99-12.7 104.99-7.34 120.85-7.34ZM105.29-13.97L120.41-13.97 122.87-16.66 127.92-12.79Q127.31-12.04 126.17-11.82L126.17-11.82 126.17 2.42Q126.12 2.72 124.54 3.23 122.96 3.74 121.77 3.74L121.77 3.74 120.85 3.74 120.85 0.97 104.99 0.97 104.99 2.24Q104.99 2.68 103.54 3.3 102.08 3.91 100.55 3.91L100.55 3.91 99.76 3.91 99.76-16.17 105.29-13.97ZM120.01-31.95L120.01-21.31 126.52-21.31 126.52-31.95 120.01-31.95ZM126.08-33.22L128.5-35.82 133.37-32.04Q132.85-31.38 131.53-31.11L131.53-31.11 131.53-18.28Q131.48-18.02 129.99-17.53 128.5-17.05 127.35-17.05L127.35-17.05 126.52-17.05 126.52-20.04 120.01-20.04 120.01-17.71Q120.01-17.49 119.42-17.14 118.83-16.79 117.8-16.5 116.76-16.22 115.8-16.22L115.8-16.22 115.05-16.22 115.05-35.29 120.19-33.22 126.08-33.22ZM143.39-7.56L143.39-7.56 144.01-7.56Q145.02-4.61 144.69-2.31 144.36 0 143.42 1.45 142.47 2.9 141.06 3.6L141.06 3.6Q139.83 4.26 138.45 3.91 137.07 3.56 136.67 2.33L136.67 2.33Q136.01 0.04 138.56-1.19L138.56-1.19Q140.41-1.85 141.86-3.58 143.31-5.32 143.39-7.56ZM149.94-7.03L149.94-7.03 150.47-7.21Q155.26-4.22 155.61-0.53L155.61-0.53Q155.83 1.89 154.2 3.03L154.2 3.03Q152.58 4.22 150.91 2.77L150.91 2.77Q150.6 2.55 150.34 2.2L150.34 2.2Q151.17-2.29 149.94-7.03ZM157.9-7.12L157.9-7.12 158.33-7.34Q164.58-5.32 166.16-1.54L166.16-1.54Q167.12 0.83 165.81 2.46L165.81 2.46Q164.62 3.96 162.73 3.16L162.73 3.16Q162.2 2.94 161.72 2.5L161.72 2.5Q161.54 0.18 160.47-2.44 159.39-5.05 157.9-7.12ZM148.36-21.71L148.36-12.39 166.9-12.39 166.9-21.71 148.36-21.71ZM167.87-8.39L167.87-8.39 166.9-8.39 166.9-11.07 148.36-11.07 148.36-9.58Q148.36-9.36 147.7-8.96 147.04-8.57 145.92-8.24 144.8-7.91 143.79-7.91L143.79-7.91 143-7.91 143-25.18 148.71-22.94 154.38-22.94 154.38-38.28 161.89-37.75Q161.76-36.52 159.96-36.21L159.96-36.21 159.96-30.85 168.79-30.85 171.69-34.8Q174.86-32.08 176.79-30.32L176.79-30.32Q176.62-29.62 175.52-29.62L175.52-29.62 159.96-29.62 159.96-22.94 166.46-22.94 168.97-25.71 174.24-21.75Q173.63-21.05 172.4-20.74L172.4-20.74 172.4-9.84Q172.35-9.67 171.63-9.34 170.9-9.01 169.8-8.7 168.71-8.39 167.87-8.39ZM167.12-7.29L167.12-7.29 167.52-7.6Q175.12-5.76 177.5-1.63L177.5-1.63Q178.86 0.83 177.8 2.68L177.8 2.68Q176.88 4.31 174.99 3.82L174.99 3.82Q174.33 3.65 173.72 3.21L173.72 3.21Q173.06 0.66 171.17-2.22 169.28-5.1 167.12-7.29Z" transform="translate(-1.5799999237060547, 38.36000061035156)"></path></g> <!----> <!----> <!----> <!----> <!----> <!----> <!----></g></g> <g data-gra="path-slogan" fill-rule="" class="tp-slogan iconsvg-slogansvg" fill="#bf4063" transform="translate(5,48.58000183105469)"><rect x="0" height="1" y="3.9750003814697266" width="34.261592864990234"></rect> <rect height="1" y="3.9750003814697266" width="34.261592864990234" x="132.42270278930664"></rect> <g transform="translate(37.261592864990234,0)"><g transform="scale(1)"><path d="M7.31-3.61L4.69-3.61L4.69-4.59L8.44-4.59L8.44 0L7.69 0L7.41-1.08Q6.42 0.09 4.59 0.14L4.59 0.14Q2.86 0.14 1.92-0.75L1.92-0.75Q0.52-2.06 0.56-4.36L0.56-4.36Q0.89-8.63 4.64-8.81L4.64-8.81Q7.83-8.63 8.30-6L8.30-6L7.17-6Q6.70-7.78 4.59-7.83L4.59-7.83Q1.92-7.64 1.78-4.31L1.78-4.31Q1.78-0.75 4.64-0.75L4.64-0.75Q5.67-0.75 6.42-1.31L6.42-1.31Q7.36-2.06 7.31-3.61L7.31-3.61ZM15.89 0L15.05-2.48L11.58-2.48L10.69 0L9.52 0L12.75-8.58L14.06-8.58L17.16 0L15.89 0ZM13.31-7.31L11.95-3.52L14.63-3.52L13.36-7.31L13.31-7.31ZM19.59-8.58L23.91-1.64L23.91-8.58L25.03-8.58L25.03 0L23.72 0L19.36-6.94L19.31-6.94L19.31 0L18.19 0L18.19-8.58L19.59-8.58ZM33.09-6.09L33.09-6.09L32.02-6.09Q31.92-7.73 29.86-7.83L29.86-7.83Q27.94-7.78 27.94-6.33L27.94-6.33Q27.94-5.39 28.97-5.25L28.97-5.25L31.41-4.69Q33.33-4.22 33.33-2.34L33.33-2.34Q33.28 0.05 29.95 0.14L29.95 0.14Q28.13 0.14 27.38-0.61L27.38-0.61Q26.44-1.31 26.48-2.77L26.48-2.77L27.61-2.77Q27.66-0.80 29.95-0.75L29.95-0.75Q32.20-0.80 32.25-2.20L32.25-2.20Q32.44-3.38 30.38-3.75L30.38-3.75L28.59-4.13Q26.77-4.64 26.77-6.19L26.77-6.19Q26.91-8.72 29.77-8.81L29.77-8.81Q33-8.81 33.09-6.09ZM40.45-3.19L40.45-8.58L41.63-8.58L41.63-3.05Q41.48 0.05 38.11 0.14L38.11 0.14Q34.97 0.05 34.83-2.86L34.83-2.86L34.83-8.58L36-8.58L36-3.19Q36.05-0.84 38.16-0.80L38.16-0.80Q40.45-0.84 40.45-3.19L40.45-3.19ZM47.58-1.03L52.88-1.03L52.88 0L46.13 0L46.13-0.94L51.38-7.59L46.50-7.59L46.50-8.58L52.88-8.58L52.88-7.59L47.58-1.03ZM55.17-5.06L59.67-5.06L59.67-8.58L60.84-8.58L60.84 0L59.67 0L59.67-3.98L55.17-3.98L55.17 0L54 0L54-8.58L55.17-8.58L55.17-5.06ZM62.81-8.58L63.98-8.58L63.98 0L62.81 0L62.81-8.58ZM69.47 0L66 0L66-8.58L69.52-8.58Q72.98-8.39 73.13-4.41L73.13-4.41Q72.94-0.09 69.47 0L69.47 0ZM69.33-7.64L67.17-7.64L67.17-0.98L69.42-0.98Q71.86-1.13 71.95-4.31L71.95-4.31Q71.91-7.55 69.33-7.64L69.33-7.64ZM74.77-8.58L75.94-8.58L75.94 0L74.77 0L74.77-8.58ZM83.58 0L82.73-2.48L79.27-2.48L78.38 0L77.20 0L80.44-8.58L81.75-8.58L84.84 0L83.58 0ZM81-7.31L79.64-3.52L82.31-3.52L81.05-7.31L81-7.31ZM87.28-8.58L91.59-1.64L91.59-8.58L92.72-8.58L92.72 0L91.41 0L87.05-6.94L87-6.94L87 0L85.88 0L85.88-8.58L87.28-8.58Z" transform="translate(-0.5609879032258065, 8.8125)"></path></g></g></g></g></g><defs v-gra="od"></defs></svg>